<?xml version="1.0" standalone="no"?>
<!DOCTYPE svg PUBLIC "-//W3C//DTD SVG 20010904//EN"
 "http://www.w3.org/TR/2001/REC-SVG-20010904/DTD/svg10.dtd">
<svg version="1.0" xmlns="http://www.w3.org/2000/svg"
 width="1280.000000pt" height="1280.000000pt" viewBox="0 0 1280.000000 1280.000000"
 preserveAspectRatio="xMidYMid meet">
<metadata>
Created by potrace 1.11, written by Peter Selinger 2001-2013
</metadata>
<g transform="translate(0.000000,1280.000000) scale(0.100000,-0.100000)"
fill="#000000" stroke="none">
<path d="M6118 12535 c-2 -2 -52 -6 -113 -10 -60 -3 -126 -8 -145 -10 -19 -1
-68 -6 -109 -9 -41 -4 -77 -8 -80 -10 -3 -2 -35 -7 -71 -10 -92 -10 -333 -50
-430 -71 -14 -4 -36 -8 -50 -11 -375 -76 -820 -221 -1205 -392 -151 -67 -449
-216 -515 -257 -19 -12 -62 -37 -95 -55 -169 -93 -478 -302 -685 -464 -279
-217 -578 -499 -808 -761 -58 -66 -117 -133 -131 -150 -15 -16 -40 -48 -56
-70 -17 -22 -36 -47 -44 -55 -20 -21 -166 -218 -233 -315 -108 -157 -225 -345
-294 -474 -13 -24 -28 -49 -33 -55 -9 -11 -176 -344 -204 -406 -68 -153 -93
-214 -145 -350 -134 -350 -265 -814 -306 -1085 -6 -39 -15 -88 -22 -130 -5
-25 -31 -206 -38 -263 -52 -414 -54 -1004 -5 -1396 6 -49 12 -99 14 -110 9
-75 17 -138 25 -181 5 -27 11 -63 14 -80 73 -452 232 -979 432 -1433 112 -253
278 -569 399 -757 28 -44 66 -105 85 -135 19 -30 54 -82 77 -115 24 -33 51
-71 60 -85 33 -46 176 -235 182 -240 3 -3 19 -23 35 -45 16 -22 46 -58 65 -80
20 -22 59 -67 86 -100 157 -187 380 -405 705 -689 14 -12 57 -46 95 -76 39
-30 72 -57 75 -60 43 -45 493 -350 632 -429 18 -10 80 -45 138 -77 266 -151
577 -290 965 -434 140 -51 552 -168 685 -194 14 -2 68 -13 120 -24 52 -11 113
-23 135 -26 22 -3 63 -9 90 -15 60 -11 92 -16 250 -35 271 -33 397 -40 720
-40 317 -1 500 8 700 34 39 5 95 12 125 15 66 7 72 8 225 34 698 119 1355 354
1990 711 72 40 159 91 195 114 36 23 90 57 120 76 140 88 582 415 620 459 3 3
34 31 70 61 173 146 442 418 616 620 517 601 910 1290 1165 2040 59 171 130
420 159 552 11 51 27 120 35 153 8 33 23 112 34 175 11 63 22 129 25 145 3 17
8 50 11 75 3 25 12 97 20 160 27 218 39 434 39 705 0 322 -14 532 -59 880 -10
75 -55 332 -65 364 -5 17 -9 34 -9 36 2 39 -103 429 -168 630 -150 458 -388
970 -618 1330 -28 44 -66 105 -85 135 -19 30 -54 82 -77 115 -24 33 -51 71
-60 85 -27 37 -175 233 -187 247 -6 7 -15 18 -21 25 -25 33 -87 109 -98 120
-7 7 -37 42 -67 78 -185 220 -547 567 -795 760 -38 30 -77 61 -85 67 -18 15
-151 113 -176 131 -11 7 -53 36 -94 65 -41 29 -103 71 -138 92 -35 22 -74 47
-87 55 -368 234 -855 463 -1295 610 -241 81 -622 181 -815 214 -16 3 -46 8
-65 11 -19 3 -62 10 -95 16 -64 12 -91 16 -170 24 -27 3 -77 10 -110 15 -33 5
-100 12 -150 15 -49 4 -115 9 -145 12 -57 5 -677 12 -682 8z"/>
</g>
</svg>
