<?xml version="1.0" standalone="no"?>
<!DOCTYPE svg PUBLIC "-//W3C//DTD SVG 20010904//EN"
 "http://www.w3.org/TR/2001/REC-SVG-20010904/DTD/svg10.dtd">
<svg version="1.0" xmlns="http://www.w3.org/2000/svg"
 width="700.000000pt" height="700.000000pt" viewBox="0 0 700.000000 700.000000"
 preserveAspectRatio="xMidYMid meet">
<metadata>
Created by potrace 1.11, written by Peter Selinger 2001-2013
</metadata>
<g transform="translate(0.000000,700.000000) scale(0.100000,-0.100000)"
fill="#000000" stroke="none">
<path d="M3298 6995 c-1 -1 -45 -5 -97 -9 -51 -3 -96 -8 -100 -10 -3 -2 -40
-7 -80 -10 -41 -4 -78 -9 -81 -11 -3 -2 -24 -6 -46 -9 -51 -8 -81 -14 -102
-20 -9 -3 -33 -8 -52 -11 -96 -16 -424 -116 -527 -161 -18 -8 -48 -21 -67 -29
-19 -8 -37 -15 -40 -15 -14 0 -305 -149 -381 -195 -78 -47 -210 -132 -230
-147 -5 -5 -59 -45 -120 -90 -60 -46 -112 -85 -115 -89 -3 -3 -36 -33 -75 -66
-143 -123 -353 -349 -476 -513 -235 -313 -408 -644 -530 -1011 -26 -81 -51
-158 -53 -170 -3 -13 -12 -51 -21 -84 -8 -33 -18 -76 -21 -95 -3 -19 -7 -37
-9 -40 -5 -7 -34 -174 -41 -232 -3 -24 -7 -59 -10 -78 -28 -192 -25 -633 5
-845 20 -141 23 -156 66 -365 2 -8 9 -35 16 -60 7 -25 13 -51 15 -58 9 -48 85
-270 131 -382 159 -393 381 -745 668 -1059 90 -99 271 -269 368 -346 21 -16
44 -34 50 -40 24 -20 163 -121 202 -146 78 -52 181 -116 225 -141 60 -34 305
-158 313 -158 4 0 30 -11 59 -24 95 -43 240 -94 384 -136 165 -48 367 -91 499
-105 28 -3 56 -8 64 -11 74 -25 640 -25 821 1 14 2 48 6 75 10 43 6 184 31
280 50 62 12 224 58 338 96 778 258 1433 775 1874 1480 105 167 233 430 306
629 65 174 140 453 161 596 4 22 9 51 11 64 3 14 13 84 22 155 24 188 23 692
-2 810 -2 11 -7 39 -9 63 -49 403 -214 885 -436 1272 -48 85 -200 315 -227
345 -10 11 -37 45 -60 76 -23 31 -47 62 -55 70 -7 8 -38 43 -68 78 -180 209
-466 455 -715 616 -450 290 -976 480 -1495 540 -30 4 -68 8 -85 11 -35 5 -522
14 -527 9z m-1654 -1336 c56 -23 115 -47 131 -54 17 -8 125 -53 240 -100 420
-173 671 -277 700 -290 17 -7 199 -83 406 -169 l377 -156 83 34 c46 19 206 84
354 146 452 188 654 271 1050 435 209 86 399 166 423 177 67 30 77 23 76 -47
0 -53 -5 -101 -19 -185 -2 -14 -14 -99 -25 -190 -11 -91 -23 -176 -25 -190 -2
-14 -6 -50 -10 -80 -3 -30 -8 -66 -10 -80 -3 -14 -7 -45 -10 -70 -3 -25 -12
-94 -20 -155 -21 -148 -24 -172 -30 -230 -3 -27 -8 -57 -10 -65 -2 -8 -7 -44
-10 -80 -4 -36 -9 -74 -11 -85 -2 -11 -6 -40 -9 -65 -8 -67 -13 -106 -26 -202
l-12 -88 109 -142 c60 -79 114 -150 121 -158 16 -20 168 -218 271 -352 45 -60
79 -114 76 -122 -3 -7 -26 -28 -52 -47 -26 -18 -49 -36 -52 -39 -3 -3 -78 -62
-168 -130 -239 -183 -795 -609 -812 -623 -8 -7 -73 -57 -145 -111 -162 -124
-250 -191 -440 -338 -182 -140 -191 -145 -204 -120 -7 14 -5 27 11 53 12 19
30 50 41 69 30 53 313 545 472 820 79 135 151 260 161 279 11 18 24 41 29 50
8 13 168 290 210 364 48 84 220 381 241 415 14 23 23 42 19 42 -3 0 -176 -99
-385 -220 -209 -121 -386 -220 -394 -220 -7 0 -18 6 -24 13 -9 10 -180 303
-247 422 -12 22 -63 110 -112 195 -50 85 -160 274 -244 420 -84 146 -167 290
-186 320 -18 30 -36 63 -39 73 -4 9 -9 17 -13 17 -5 0 -192 -320 -332 -569
-46 -81 -65 -114 -116 -201 -28 -47 -62 -105 -76 -130 -63 -109 -163 -282
-172 -298 -5 -9 -34 -60 -64 -112 -71 -124 -89 -150 -107 -150 -8 0 -80 38
-160 85 -80 47 -147 85 -148 85 -2 0 -34 19 -72 41 -37 23 -88 53 -113 67 -25
14 -58 32 -73 41 -134 79 -211 121 -213 119 -1 -2 49 -91 111 -198 63 -107
120 -206 127 -220 7 -14 80 -140 162 -280 81 -140 158 -273 171 -295 12 -22
104 -182 204 -355 101 -173 192 -331 203 -350 10 -19 61 -107 112 -195 108
-189 110 -192 87 -204 -13 -7 -30 1 -72 32 -51 39 -435 333 -815 625 -88 67
-191 146 -229 175 -37 28 -73 57 -80 62 -6 6 -47 37 -91 71 -323 245 -571 438
-578 449 -7 13 15 45 173 250 43 56 143 186 214 280 17 22 33 42 36 45 3 3 38
49 79 102 l73 97 -7 63 c-4 35 -9 70 -10 79 -2 9 -6 40 -10 69 -4 29 -8 60
-10 69 -1 9 -6 43 -9 76 -7 61 -10 80 -20 150 -4 22 -9 60 -11 85 -3 25 -15
113 -26 195 -42 318 -60 452 -64 495 -3 25 -7 56 -10 70 -5 27 -11 73 -20 160
-3 30 -8 62 -10 70 -4 14 -7 44 -20 155 -4 27 -8 51 -10 54 -7 7 15 41 27 41
6 0 57 -18 112 -41z m1890 -2821 c9 -29 39 -138 67 -243 27 -104 59 -221 69
-260 85 -313 187 -695 215 -800 7 -27 45 -171 85 -318 39 -147 70 -275 68
-284 -4 -19 2 -16 -301 -172 l-238 -123 -57 30 c-96 50 -323 167 -400 207 -41
21 -76 44 -79 52 -3 8 11 78 32 156 21 78 52 198 70 267 19 69 56 208 83 310
27 102 53 199 57 215 5 17 9 35 11 40 1 6 30 111 64 235 34 124 63 233 65 242
5 25 94 354 116 431 15 52 24 67 38 67 14 0 23 -14 35 -52z"/>
</g>
</svg>
